<?xml version="1.0" standalone="no"?>
<!DOCTYPE svg PUBLIC "-//W3C//DTD SVG 1.1//EN" "http://www.w3.org/Graphics/SVG/1.1/DTD/svg11.dtd" >
<svg xmlns="http://www.w3.org/2000/svg" xmlns:xlink="http://www.w3.org/1999/xlink" version="1.1">
<metadata></metadata>
<defs>
<font id="prestij_demo_lightregular" horiz-adv-x="1178" >
<font-face units-per-em="2048" ascent="1638" descent="-410" />
<missing-glyph horiz-adv-x="579" />
<glyph unicode="&#xd;" horiz-adv-x="300" />
<glyph horiz-adv-x="300" />
<glyph horiz-adv-x="300" />
<glyph unicode=" "  horiz-adv-x="579" />
<glyph unicode="&#x09;" horiz-adv-x="579" />
<glyph unicode="&#xa0;" horiz-adv-x="579" />
<glyph unicode="!" horiz-adv-x="419" d="M165 0v89h89v-89h-89zM170 415v1088h79v-1088h-79z" />
<glyph unicode="&#x22;" horiz-adv-x="662" d="M150 1072v431h79v-431h-79zM433 1072v431h79v-431h-79z" />
<glyph unicode="#" horiz-adv-x="1425" d="M150 459v79h261l83 415h-344v79h360l88 435l7 39l78 -15q-41 -203 -92 -459h413l88 435l7 39l78 -15q-43 -216 -92 -459h190v-79h-206l-83 -415h289v-79h-305q-58 -286 -94 -469l-78 15l91 454h-413q-58 -286 -95 -469l-77 15l91 454h-245zM491 538h414l83 415h-413z" />
<glyph unicode="$" horiz-adv-x="1127" d="M150 416h79q0 -138 98 -236q82 -82 197 -96v670q-87 9 -156 51q-85 52 -134 138q-48 86 -48 185q0 156 111 267q94 94 227 108v239h79v-239q133 -14 228 -108q110 -111 110 -267h-79q0 123 -88 211q-71 71 -171 84v-596q54 -5 97 -21q125 -43 201 -151q76 -107 76 -239 q0 -171 -121 -292q-105 -105 -253 -119v-225h-79v225q-148 14 -253 119q-121 121 -121 292zM265 1128q0 -79 38 -146q39 -69 106 -109q51 -31 115 -39v589q-100 -13 -171 -84q-88 -88 -88 -211zM603 84q115 14 197 96q98 98 98 236q0 107 -61 193q-62 88 -163 123 q-31 11 -71 15v-663z" />
<glyph unicode="%" horiz-adv-x="1397" d="M150 1165q0 68 17 129q54 202 218 202q163 0 218 -202q16 -61 16 -129t-16 -130q-55 -202 -218 -202q-164 0 -218 202q-17 62 -17 130zM229 1165q0 -58 14 -110q39 -143 142 -143q102 0 141 143q14 52 14 110q0 57 -14 109q-39 143 -141 143q-103 0 -142 -143 q-14 -52 -14 -109zM289 16l71 -36q124 250 374 747q249 498 374 747l-71 36l-18 -36zM777 325q0 68 17 130q55 202 218 202t218 -202q17 -62 17 -130t-17 -129q-55 -202 -218 -202t-218 202q-17 61 -17 129zM857 325q0 -57 14 -109q38 -143 141 -143t142 143q13 52 13 109 q0 58 -13 110q-39 143 -142 143t-141 -143q-14 -52 -14 -110z" />
<glyph unicode="&#x26;" horiz-adv-x="1451" d="M150 463q0 132 69 248q65 110 178 180q-186 161 -186 334v5q0 149 37 197q58 76 258 76h572v-79h-572q-146 0 -189 -54q-27 -34 -27 -140l1 -5q0 -96 60 -175q37 -49 150 -144q25 -22 43 -36l30 -26l-1 -1l581 -533q31 74 31 153v180h79v-180q0 -110 -48 -209l224 -205 l-53 -58l-212 193q-33 -47 -76 -86q-162 -150 -392 -150t-393 150q-164 151 -164 365zM229 463q0 -180 139 -307q140 -129 339 -129t339 129q41 37 70 82l-623 570l-1 2q-12 10 -32 27l-12 -7q-103 -61 -161 -159q-58 -97 -58 -208z" />
<glyph unicode="'" horiz-adv-x="379" d="M150 1072v431h79v-431h-79z" />
<glyph unicode="(" horiz-adv-x="641" d="M100 615q1 338 178 660q88 159 179 256l27 28l57 -54l-27 -28q-86 -93 -167 -240q-168 -303 -168 -622t168 -622q81 -147 167 -240l27 -29l-57 -54l-27 29q-91 97 -179 255q-177 322 -178 661z" />
<glyph unicode=")" horiz-adv-x="641" d="M100 -276l27 29q86 93 168 240q167 303 167 622t-167 622q-82 147 -168 240l-27 28l58 54l27 -28q90 -97 178 -256q178 -322 178 -660q0 -339 -178 -661q-88 -158 -178 -255l-27 -29z" />
<glyph unicode="*" horiz-adv-x="1188" d="M150 1152l24 75l381 -123v399h79v-399l380 123l24 -75l-380 -124l235 -323l-64 -47l-235 324l-235 -324l-64 47l235 323l-342 112z" />
<glyph unicode="+" horiz-adv-x="1383" d="M150 662v79h502v502h79v-502h502v-79h-502v-502h-79v502h-502z" />
<glyph unicode="," horiz-adv-x="389" d="M150 0v89h89v-89l-40 -119h-40l30 119h-39z" />
<glyph unicode="-" horiz-adv-x="1017" d="M150 560v79h717v-79h-717z" />
<glyph unicode="." horiz-adv-x="1547" d="M100 -282v1710h1335v-1710h-1335zM135 -242h1264v1640h-1264v-1640zM199 438q18 24 50 24h9q28 -5 28 -40q0 -34 -33 -49q-12 -5 -27 -7v-37h-1q-5 0 -14 3v34h-5l-5 1q0 11 5 19h5q0 41 -6 41q-6 7 -6 11zM211 -108q0 5 11 16h3q8 -18 30 -18q18 0 18 20q0 15 -21 18 q-27 0 -32 12q-4 8 -4 12v8q0 34 42 34q24 -5 24 -21v-1q-1 -2 -12 -9h-3q0 7 -13 8h-1q-13 0 -20 -10v-4q0 -6 31 -6q27 -12 27 -38v-5q0 -28 -22 -38q-5 -3 -10 -3h-9q-23 0 -39 25zM224 435q1 -35 1 -47q1 0 1 -2q29 6 37 17q8 10 8 18q0 18 -15 21h-6q-26 -3 -26 -7z M288 374q0 40 32 53l11 1q23 -4 23 -22v-6q0 -20 -39 -36h-10q0 -11 17 -16q11 0 21 18h4q8 -12 8 -15q-17 -22 -30 -22h-7q-26 0 -30 45zM296 -16h15v9q0 46 5 46l15 -5q-2 -23 -2 -36v-14q13 3 15 3q2 -20 2 -24h-2q-9 -1 -15 -1q3 -63 5 -91q-12 -2 -17 -2v1q-5 61 -5 88 l-2 2h-14v24zM305 385q19 0 33 18v2q-7 2 -9 2q-16 0 -24 -19v-3zM325 911v56h9q0 -72 140 -84h177q66 0 66 -65v-103q0 -83 -103 -83h-158q-131 120 -131 279zM350 -11q17 -5 17 -6v-20q0 -67 12 -67h5q17 19 24 55q5 10 6 38h2q15 -2 15 -6q-3 -42 -3 -59v-10q0 -10 5 -20 q0 -6 -10 -18q-12 12 -12 25h-1q-11 -29 -28 -29h-3q-29 0 -29 93v24zM352 146v4q0 58 45 79l7 2h10q14 0 23 -23q-6 -6 -6 -9h-3q-9 15 -21 15q-17 0 -35 -26q-9 -19 -9 -34v-5q0 -29 24 -35q2 -1 8 -1q31 3 31 20v10q-4 3 -12 3h-10v17q28 0 33 -9q2 -7 2 -9 q-2 -25 -2 -29q0 -11 4 -26q-1 0 -8 -5h-1q-4 0 -6 22q-6 -8 -29 -12h-2q-38 0 -43 51zM353 1088v10q147 270 364 270v-242h-261q-54 0 -103 -38zM357 413q12 2 15 2v-1q0 -4 3 -19h1q10 43 28 43q19 0 28 -49q-1 0 -15 -4q-6 33 -13 33q-17 -9 -20 -75q1 -14 1 -15 q-10 -2 -15 -2q-13 69 -13 87zM409 986v37q3 19 19 19h289v-94q-35 19 -75 19h-214q-19 0 -19 19zM432 347v1q1 3 9 11h1q12 -15 28 -15q14 4 14 16q-4 15 -21 15q-28 0 -28 22v3q0 30 37 30q18 -5 18 -17v-1q0 -2 -10 -8h-1q-4 7 -13 7q-13 0 -16 -11q0 -5 29 -6 q20 -11 20 -34q0 -25 -20 -34l-8 -2h-5q-24 0 -34 23zM437 -63q0 48 34 58h4q14 0 29 -16v1q0 8 3 65q1 0 17 -4q-4 -38 -5 -92q0 -34 10 -69q-11 -10 -12 -10h-1q-3 0 -6 13h-2q0 -8 -21 -16q-33 0 -47 42q-3 12 -3 28zM446 132v15q0 33 26 46q5 2 15 2q20 -4 20 -20 q1 0 1 -2q0 -23 -35 -36q-5 -3 -15 -3v-1q0 -11 17 -17h1q10 0 23 16h3q0 -2 6 -9v-1q-14 -22 -29 -22h-6q-19 0 -27 32zM454 -64v-3q0 -34 30 -40h3q12 0 15 26v3q0 36 -21 48l-6 1h-2q-17 0 -19 -35zM457 150q23 0 39 22q-2 6 -11 6h-3q-19 0 -25 -28zM501 364q0 50 25 65 q2 1 11 3q20 0 33 -32q2 -9 2 -17v-3q0 -36 -35 -53q-5 -1 -9 -1q-27 4 -27 38zM513 172v16l11 1h2v18q0 27 3 27q8 -2 10 -2q-2 -29 -2 -42h2l12 2v-17q-1 0 -14 -2l4 -74l-2 -2h-8q-3 29 -5 75h-13zM516 365q2 -18 12 -18h3q24 7 26 35v3q-6 26 -20 26h-2q-13 0 -18 -32 q-1 -7 -1 -14zM534 22q2 14 12 14q9 0 11 -14v-1q0 -11 -8 -16h-7q-8 5 -8 17zM537 -10h12l6 -1q0 -3 -1 -8q1 -67 4 -109h-18l-1 8q-2 68 -2 110zM566 -76q0 51 30 69q10 2 11 2q25 0 41 -38q2 -11 2 -17v-9q0 -40 -39 -60q-4 -2 -13 -2q-27 0 -32 41v14zM567 538v10 q132 0 187 56h9q61 -56 187 -56v-10q-108 -37 -187 -37h-9q-80 0 -187 37zM575 409q7 2 14 2q3 -17 3 -20h1q7 41 21 41q19 0 36 -89q1 0 1 -7q-8 -7 -12 -7q-15 62 -23 80q-9 -13 -18 -70q-1 0 -5 -10h-7q-7 0 -9 57q-2 14 -2 23zM583 -82q0 -22 15 -25h4q15 0 29 29 q2 4 2 9v9q-7 31 -24 31h-2q-21 0 -24 -53zM592 154v17q6 0 10 2q-3 21 -3 52q3 29 17 29h2q13 0 15 -34v-3l-6 -1h-2q-3 21 -8 21q-6 0 -8 -19q1 -2 1 -4q0 -10 2 -39q5 3 9 3h3v-15l-11 -3q5 -57 5 -69h-11q-4 54 -4 65h-1q-5 -2 -10 -2zM634 193q2 0 11 -3q0 -74 14 -74 q19 12 28 66q1 5 1 11h1q3 0 10 -3q-3 -24 -3 -45v-12q0 -9 5 -19q-5 -7 -5 -11h-2q-7 4 -8 26h-2q-4 -15 -19 -29h-9q-20 0 -20 75v10zM652 348v8q0 30 32 35q11 -1 20 -6v1q-4 25 -17 25q-9 0 -18 -10h-3q-2 1 -8 11v2q12 14 23 14h11q27 -9 27 -45q-1 -21 -1 -35l2 -16 q-9 -8 -13 -8h-1l-2 11q-12 -8 -23 -8h-7q-22 3 -22 21zM654 -16h17q0 34 3 55h1l15 -5q-2 -28 -2 -45v-5q14 3 16 3l1 -14v-10q-16 -1 -16 -2q0 -23 5 -90q-13 -2 -17 -2v1q-5 75 -5 90h-18v24zM667 351q0 -3 10 -6q17 0 25 17q-8 7 -19 7q-16 -3 -16 -15v-3zM709 198v39h4 h6v-9q0 -61 3 -132h-11q-2 65 -2 102zM710 -40q0 33 3 33q12 -4 15 -4q-1 -23 -1 -34v-6q0 -33 12 -44h5q22 18 22 72v10h17v-1q8 -89 8 -103v-10q0 -44 -28 -60q-10 -4 -16 -4q-22 0 -29 20q-2 4 -2 9v9q0 15 4 15l14 -7l-1 -8v-4q0 -8 11 -10h4q20 0 25 33q1 4 1 12v20 l-1 13h-1q-10 -30 -29 -30h-2q-23 0 -30 50q-1 8 -1 20v9zM725 462v3v6h3l11 -1v-18q2 -70 2 -126l-7 -2h-6q-3 71 -3 138zM733 232v3q0 2 2 2h1h8v-30q0 -32 3 -111h-11q-3 66 -3 136zM782 411v11q0 25 8 44h4q0 -2 7 -12q-4 -18 -4 -30v-18q0 -44 15 -58h1q21 0 35 117h2 q12 -4 13 -4q-6 -58 -6 -86q0 -31 12 -31q2 -16 2 -20h-8q-13 0 -20 32h-1q-11 -28 -27 -28h-5q-20 0 -27 61q-1 4 -1 22zM789 154v17l11 1q-3 46 -3 52q0 30 19 30q12 0 16 -37l-8 -1h-2v1q0 15 -7 20q-8 -5 -8 -15q0 -8 3 -46v-1q5 3 10 3h1l1 -8v-7q-1 0 -12 -3l2 -3 q0 -12 4 -66h-11q0 6 -4 65q-9 -2 -12 -2zM800 -5h5q11 0 11 -3v-2q9 5 19 5q25 0 33 -44q0 -11 1 -14q-3 -52 -31 -64l-8 -1h-10l1 -8q0 -6 1 -40h-17q-5 132 -5 171zM800 725v317h383l9 -94v-18q0 -185 -131 -298h-167q-94 12 -94 93zM800 1126v242h10q132 0 279 -149 q56 -68 56 -93h-345zM816 -37q0 -3 3 -67l7 -1q22 0 26 42q-3 34 -17 34h-1q-10 0 -18 -8zM833 133v4q0 41 19 57q8 5 14 5q23 0 34 -38v-14q0 -34 -34 -50l-7 -1q-16 0 -24 20q-2 11 -2 17zM843 137q2 -23 15 -23h1q16 0 27 25q3 8 3 11q-6 31 -22 31h-4q-15 0 -20 -44z M871 347v1q8 11 10 11h1q12 -15 27 -15q14 4 14 16t-16 15q-25 0 -30 11q-2 11 -2 14q0 30 37 30q13 0 20 -18v-1q-11 -7 -14 -7q0 6 -11 7q-12 0 -17 -10v-1q0 -5 29 -6q19 -9 19 -36q0 -26 -24 -34h-8q-23 0 -35 23zM873 -81q0 54 30 74q11 2 12 2q23 0 39 -35 q4 -13 4 -24q0 -43 -38 -65q-8 -2 -14 -2q-22 0 -31 27q-2 12 -2 23zM890 -82v-5q0 -17 15 -20h2q16 0 30 26q4 8 4 18q-6 34 -28 34q-19 0 -23 -53zM905 176l8 2h2q3 -16 3 -33h1q9 54 24 54t34 -94h-1q-5 -4 -9 -4q-15 67 -24 79q-7 -7 -23 -79l-2 -1h-4q-6 0 -9 76z M941 373q0 40 30 54l12 1q24 -4 24 -23q0 -29 -42 -41h-7v-2q7 -14 16 -14q10 0 23 18h1q1 0 9 -12q0 -9 -21 -22q-4 -3 -9 -3h-7q-24 0 -29 44zM958 385h3q17 0 31 19q-6 3 -9 3h-3q-16 0 -22 -21v-1zM966 -113q1 17 11 17q9 0 12 -14v-5q-3 -13 -12 -13t-11 15zM979 172 l1 8v8l11 1h1v1q0 21 2 44q3 0 12 -2q-3 -13 -3 -29v-13h3l12 2v-17h-3l-12 -2l5 -74l-5 -2h-6q-3 62 -3 75h-15zM996 -84q0 34 19 64q12 12 18 12h8q6 0 15 -9q11 -12 11 -18q-11 -13 -12 -13q-11 15 -18 15h-2q-12 -5 -18 -28l-4 -21q0 -22 14 -24h3q11 0 34 16h1 q6 -20 6 -22q-25 -18 -47 -18q-23 0 -28 46zM1044 367v9q0 50 40 88q8 2 10 2h6q12 0 28 -28q12 -22 12 -44v-9q0 -37 -40 -58q-7 -3 -14 -3h-7q-30 0 -35 43zM1058 117v8q3 32 30 32q12 0 21 -8v3q0 25 -18 29h-3q-6 0 -17 -8h-1q-1 0 -6 7v2q10 13 19 13h11q16 0 24 -28 q2 -16 3 -18q-1 -6 -3 -26q2 -4 2 -23l-6 -4h-3l-3 12q-10 -11 -25 -11h-4q-21 3 -21 20zM1059 368q0 -21 25 -24q22 0 37 27q5 8 5 18v3q0 27 -26 53q-3 0 -3 2q-17 0 -35 -50q-3 -11 -3 -21v-8zM1068 122q3 -8 11 -8h6q14 0 22 18q-9 8 -17 8h-2q-20 -3 -20 -18zM1076 -76 q0 51 30 69q10 2 11 2q24 0 39 -35q4 -8 4 -19v-8q0 -43 -39 -62q-4 -2 -13 -2q-28 0 -32 41v14zM1092 -82q0 -25 17 -25h3q14 0 29 30q2 6 2 10v7q-8 31 -25 31h-1q-20 0 -25 -53zM1126 172v16l11 1h1l2 45q3 0 12 -2q-2 -18 -2 -34v-8h2l12 2v-8v-9q-1 0 -14 -2v-6 q0 -15 4 -68l-2 -2h-9l-4 75h-13zM1144 409q6 2 15 2q1 -19 1 -22h1q7 43 24 43q16 0 35 -96q-9 -7 -13 -7q-15 66 -24 80q-6 -12 -19 -74q-3 -6 -4 -6h-6q-7 0 -10 80zM1164 -23q13 6 17 6q2 -8 4 -31h2q9 43 24 43q17 0 27 -58h1q8 58 27 58h1q24 0 40 -118h-2 q-11 -5 -13 -5h-1q-19 98 -25 98q-10 -22 -17 -82q-3 -10 -10 -10q-8 0 -11 15q-13 76 -19 76q-16 -58 -16 -93q-10 -4 -17 -4v1zM1223 453q1 12 1 18h1l14 -1q-1 -9 -1 -13q0 -55 3 -131l-11 -2h-4q-2 58 -3 129zM1247 383v17q0 10 2 29q13 -2 14 -2q-1 -18 -1 -26v-9 q2 -35 13 -35h1q18 13 18 67h15v-3q7 -78 7 -88q0 -46 -30 -56h-5h-5q-18 0 -23 19q-1 5 -1 10q0 15 3 15h1q9 -6 12 -6l-1 -9q0 -8 9 -9h2q23 0 23 42q0 5 -1 21h-1q-8 -24 -26 -24h-1q-19 0 -25 47z" />
<glyph unicode="/" horiz-adv-x="694" d="M100 7l418 1499l76 -21l-418 -1499z" />
<glyph unicode="0" horiz-adv-x="1346" d="M150 746q0 164 39 311q56 209 173 331q130 134 311 134t311 -134q118 -122 173 -331q39 -147 39 -311t-39 -311q-55 -209 -173 -331q-130 -134 -311 -134t-311 134q-117 122 -173 331q-39 147 -39 311zM229 746q0 -154 37 -291q48 -182 147 -289q110 -117 260 -117 q151 0 260 117q99 107 148 289q36 137 36 291t-36 291q-49 182 -148 289q-109 117 -260 117q-150 0 -260 -117q-99 -107 -147 -289q-37 -137 -37 -291z" />
<glyph unicode="1" horiz-adv-x="765" d="M10 1423v79h465v-1502h-79v1423h-386z" />
<glyph unicode="2" horiz-adv-x="1323" d="M150 0v139q0 225 160 369q96 86 347 202q208 95 286 159q128 107 128 261v6q0 117 -83 199q-94 92 -257 96l-432 -1h-40v80h462h11q195 -4 311 -119q107 -105 107 -255v-1v-6q0 -187 -143 -311q-86 -74 -317 -180q-229 -105 -315 -181q-146 -126 -146 -318v-60h944v-79 h-1023z" />
<glyph unicode="3" horiz-adv-x="1250" d="M150 0v80h521q239 0 322 199q28 66 28 139q0 74 -28 140q-83 199 -322 199h-326v79h274q240 0 323 174q27 57 27 120t-27 119q-82 174 -323 174h-424v80h424q291 0 395 -220q34 -72 34 -153t-34 -153q-54 -113 -170 -171q157 -60 222 -218q34 -80 34 -170q0 -89 -34 -170 q-46 -111 -142 -176q-106 -72 -253 -72h-521z" />
<glyph unicode="4" horiz-adv-x="1138" d="M91 257v122l617 1124h91l-637 -1166h690v392h80v-392h129v-80h-129v-257h-80v257h-761z" />
<glyph unicode="5" horiz-adv-x="1147" d="M124 -24v79h485q163 3 257 96q83 81 83 199v170q0 117 -83 199q-94 93 -257 96h-456l43 688h762v-79h-688l-32 -530h373q195 -4 310 -119q107 -105 107 -255v-170q0 -151 -107 -256q-115 -114 -310 -118h-487z" />
<glyph unicode="6" horiz-adv-x="1265" d="M100 507q0 127 57 240l-1 1l11 17q10 19 22 38q67 109 221 360q143 233 221 361l68 -41l-307 -501q113 58 240 58q221 0 377 -156t156 -377q0 -220 -156 -376t-377 -156q-220 0 -376 156t-156 376zM179 507q0 -188 133 -320q133 -133 320 -133q188 0 321 133 q133 132 133 320t-133 321q-133 132 -321 132q-187 0 -320 -132q-33 -33 -58 -72l-10 -16l-6 -10q-59 -103 -59 -223z" />
<glyph unicode="7" horiz-adv-x="1100" d="M62 1424v79h960q9 0 16 -3q29 -15 20 -52l-645 -1448h-86l634 1424h-899z" />
<glyph unicode="8" horiz-adv-x="1099" d="M50 428q0 187 133 320q63 64 146 98q-46 25 -82 62q-107 106 -107 256q0 151 107 257q106 106 306 106q190 0 297 -106q106 -106 106 -257q0 -150 -106 -256q-37 -37 -83 -62q83 -34 146 -98q133 -133 133 -320q0 -188 -133 -321q-132 -132 -360 -132q-238 0 -370 132 q-133 133 -133 321zM129 428q0 -155 110 -264q109 -110 314 -110q195 0 304 110q110 109 110 264t-110 264q-108 108 -301 110h-6q-203 -2 -311 -110q-110 -109 -110 -264zM220 1164q0 -117 83 -200q81 -82 247 -83h6q156 1 238 83q83 83 83 200q0 118 -83 201t-241 83 q-167 0 -250 -83t-83 -201z" />
<glyph unicode="9" horiz-adv-x="1365" d="M150 996q0 220 156 376t376 156q221 0 377 -156t156 -376q0 -127 -57 -240l1 -1l-11 -17q-10 -19 -22 -37q-68 -111 -442 -722l-68 41l307 501q-113 -58 -241 -58q-220 0 -376 156t-156 377zM229 996q0 -188 133 -321q133 -132 320 -132q188 0 321 132q33 33 58 72l10 16 l6 10q59 103 59 223q0 188 -133 320q-133 133 -321 133q-187 0 -320 -133q-133 -132 -133 -320z" />
<glyph unicode=":" horiz-adv-x="389" d="M150 0v89h89v-89h-89zM150 889v89h89v-89h-89z" />
<glyph unicode=";" horiz-adv-x="389" d="M150 0v89h89v-89l-40 -119h-40l30 119h-39zM150 889v89h89v-89h-89z" />
<glyph unicode="&#x3c;" horiz-adv-x="875" d="M56 597v98l771 367v-88l-689 -328l689 -328v-88z" />
<glyph unicode="=" horiz-adv-x="1117" d="M150 360v79h817v-79h-817zM150 760v79h817v-79h-817z" />
<glyph unicode="&#x3e;" horiz-adv-x="875" d="M56 230v88l689 328l-689 328v88l771 -367v-98z" />
<glyph unicode="?" horiz-adv-x="998" d="M100 1090v39q0 166 117 282q117 117 282 117t282 -117q117 -116 117 -282q0 -190 -92 -294q-54 -61 -191 -126q-84 -40 -115 -68q-50 -46 -50 -121v-212h-79v212q0 108 64 171q39 39 147 90q115 54 160 105q76 86 76 243q0 133 -93 226q-94 94 -226 94q-133 0 -226 -94 q-94 -93 -94 -226v-39h-79zM366 0v89h89v-89h-89z" />
<glyph unicode="@" horiz-adv-x="1752" d="M100 752q0 322 227 549t549 227h29q312 -11 525 -217q222 -214 222 -531q0 -10 -1 -29q-5 -157 -101 -284q-82 -109 -202 -167q-64 -31 -121 -37q-65 -8 -106 16q-59 36 -46 115q4 18 13 83q-7 -9 -14 -17q-117 -126 -266 -126q-13 0 -29 1q-130 13 -213 123 q-81 106 -81 256q0 23 2 50q17 173 131 296q116 126 265 126q14 0 30 -2q129 -12 213 -122q22 -30 39 -65q25 175 26 180l78 -11q-100 -697 -115 -786q-5 -25 8 -33q18 -10 55 -6q45 6 97 30q102 50 172 142q82 108 86 241q1 9 1 26q0 284 -198 474q-191 185 -472 195h-27 q-289 0 -493 -204t-204 -493q0 -296 193 -489t505 -207q185 -9 370 44q185 52 286 140l52 -60q-115 -99 -317 -157q-196 -55 -394 -46q-344 16 -558 230q-216 216 -216 545zM564 714q0 -123 65 -209q62 -82 157 -91q10 -1 22 -1q115 0 207 100q96 104 110 251q2 20 2 42 q0 123 -65 208q-62 83 -157 92q-9 1 -22 1q-115 0 -207 -101q-96 -103 -110 -250q-2 -20 -2 -42z" />
<glyph unicode="A" horiz-adv-x="1380" d="M150 0v988q0 224 158 382t382 158q223 0 381 -158q159 -158 159 -382v-988h-80v584h-921v-584h-79zM229 663h921v325q0 191 -135 326t-325 135q-191 0 -326 -135t-135 -326v-325z" />
<glyph unicode="B" horiz-adv-x="1256" d="M150 40v1096q7 148 113 254q112 113 271 113h199q164 0 279 -116q116 -116 116 -280q0 -163 -116 -279q-40 -40 -89 -67q72 -30 127 -86q116 -116 116 -279q0 -164 -116 -280t-280 -116h-580q-40 0 -40 40zM229 80h541q131 0 224 92q92 93 92 224t-92 223q-93 93 -224 93 h-541v-632zM229 792l366 -1h138q131 0 223 93q93 92 93 223t-93 224q-92 93 -223 93h-199q-126 0 -215 -90q-90 -89 -90 -215v-327z" />
<glyph unicode="C" horiz-adv-x="1218" d="M100 751q0 117 34 228q74 244 283 397q207 152 460 152q113 0 223 -34l38 -11l-23 -76l-38 12q-97 30 -200 30q-227 0 -413 -137q-188 -137 -255 -356q-30 -98 -30 -205q0 -106 30 -204q67 -219 255 -357q186 -136 413 -136q103 0 200 30l38 11l23 -75l-38 -12 q-110 -33 -223 -33q-253 0 -460 152q-209 153 -283 397q-34 111 -34 227z" />
<glyph unicode="D" horiz-adv-x="1323" d="M150 0v1503h383q13 0 26 -1q295 -19 499 -237q203 -217 203 -513q0 -310 -220 -531q-221 -221 -531 -221h-360zM229 80h281q277 0 475 197q197 197 197 475q0 265 -182 459q-182 195 -446 211q-11 1 -21 1h-304v-1343z" />
<glyph unicode="E" horiz-adv-x="972" d="M100 752q0 453 223 635q172 141 528 141h40v-79h-40q-328 0 -478 -123q-185 -151 -193 -535h671v-79h-671q8 -384 193 -535q150 -123 478 -123h40v-79h-40q-356 0 -528 141q-223 182 -223 636z" />
<glyph unicode="F" horiz-adv-x="939" d="M150 0v1136q7 148 113 254q112 113 271 113h387v-79h-387q-126 0 -215 -90q-90 -89 -90 -215v-358h662v-79h-662v-682h-79z" />
<glyph unicode="G" horiz-adv-x="1514" d="M100 752q0 321 220 548q220 228 531 228h40v-79h-40q-278 0 -474 -204q-198 -204 -198 -493q0 -290 198 -494q196 -204 474 -204q124 0 239 45q106 42 194 119v494h-472v79h552v-607l-13 -12q-104 -96 -233 -146q-128 -51 -267 -51q-311 0 -531 228q-220 227 -220 549z " />
<glyph unicode="H" horiz-adv-x="1359" d="M150 0v1503h79v-712h900v712h80v-1503h-80v712h-900v-712h-79z" />
<glyph unicode="I" horiz-adv-x="579" d="M250 0v1503h79v-1503h-79z" />
<glyph unicode="J" horiz-adv-x="734" d="M15 -25v80q190 0 325 134q135 135 135 326v988h80v-988q0 -224 -159 -382q-158 -158 -381 -158z" />
<glyph unicode="K" horiz-adv-x="1272" d="M150 0v1503h79v-883q134 152 445 502q201 226 339 381h106l-596 -671h115q215 0 367 -152q152 -151 152 -366v-314h-79v314q0 182 -129 310q-129 129 -311 129h-185l-210 -237l-14 -15v-501h-79z" />
<glyph unicode="L" horiz-adv-x="984" d="M150 384v1119h79v-1119q0 -125 90 -215q89 -89 215 -90h435v-79h-435q-159 0 -271 113q-113 113 -113 271z" />
<glyph unicode="M" horiz-adv-x="1974" d="M150 0v1090q0 181 128 310q129 128 310 128q182 0 310 -128q56 -56 89 -128q33 72 89 128q128 128 310 128q181 0 310 -128q128 -129 128 -310v-1090h-79v1090q0 149 -105 254q-106 105 -254 105q-149 0 -254 -105q-101 -101 -105 -244v-987h-80v977q0 149 -105 254 t-254 105q-148 0 -254 -105q-105 -105 -105 -254v-1090h-79z" />
<glyph unicode="N" horiz-adv-x="1380" d="M150 0v988q0 224 158 382t382 158q223 0 381 -158q159 -158 159 -382v-988h-80v988q0 191 -135 326t-325 135q-191 0 -326 -135t-135 -326v-988h-79z" />
<glyph unicode="O" horiz-adv-x="1668" d="M80 751q0 326 219 552q218 225 535 225t535 -225q219 -226 219 -552q0 -325 -219 -551q-218 -225 -535 -225t-535 225q-219 226 -219 551zM159 751q0 -294 197 -496q194 -201 478 -201t478 201q197 202 197 496q0 295 -197 497q-194 201 -478 201t-478 -201 q-197 -202 -197 -497z" />
<glyph unicode="P" horiz-adv-x="1231" d="M150 0v1020q4 208 152 356q152 152 366 152q215 0 367 -152t152 -367q0 -214 -152 -366q-121 -121 -289 -146l-96 -6h-421v-491h-79zM229 570h439q182 0 311 129q129 128 129 310t-129 311q-129 128 -311 128q-181 0 -310 -128q-129 -129 -129 -311v-439z" />
<glyph unicode="Q" horiz-adv-x="1668" d="M80 751q0 326 219 552q218 225 535 225t535 -225q219 -226 219 -552q0 -325 -219 -551q-204 -211 -495 -224v-211h-80v211q-291 13 -495 224q-219 226 -219 551zM159 751q0 -294 197 -496q180 -187 438 -200v643h80v-643q258 13 438 200q197 202 197 496q0 295 -197 497 q-194 201 -478 201t-478 -201q-197 -202 -197 -497z" />
<glyph unicode="R" horiz-adv-x="1245" d="M150 0v1020q4 208 152 356q152 152 366 152q215 0 367 -152t152 -367q0 -214 -152 -366q-121 -121 -289 -146l374 -463l-62 -50l-396 492l-12 15h-421v-491h-79zM229 570h439q182 0 311 129q129 128 129 310t-129 311q-129 128 -311 128q-181 0 -310 -128 q-129 -129 -129 -311v-439z" />
<glyph unicode="S" horiz-adv-x="1195" d="M93 1107q0 396 444 396h449v-79h-449q-178 0 -266 -69q-99 -77 -99 -248q0 -159 136 -233q81 -45 298 -84q250 -45 343 -100q156 -92 156 -295q0 -395 -481 -395h-497v79h497q190 0 286 63q116 76 116 253q0 159 -136 233q-81 45 -298 84q-249 46 -343 101 q-156 91 -156 294z" />
<glyph unicode="T" horiz-adv-x="1002" d="M10 1424v79h982v-79h-451v-1424h-79v1424h-452z" />
<glyph unicode="U" horiz-adv-x="1380" d="M150 515v988h79v-988q0 -191 135 -326q135 -134 326 -134q190 0 325 134q135 135 135 326v988h80v-988q0 -224 -159 -382q-158 -158 -381 -158q-224 0 -382 158t-158 382z" />
<glyph unicode="V" horiz-adv-x="1275" d="M10 1503h83l442 -1378q10 -32 37 -51q29 -19 66 -19t65 19t38 51l441 1378h83l-449 -1403q-18 -57 -68 -91q-48 -34 -110 -34t-111 34t-67 91z" />
<glyph unicode="W" horiz-adv-x="2125" d="M150 451v1052h79v-1052q0 -164 116 -280q117 -116 281 -116t280 116q117 116 117 280v1052h79v-1052q0 -164 116 -280t281 -116q164 0 280 116t116 280v1052h80v-1052q0 -197 -140 -336q-139 -140 -336 -140q-198 0 -337 140q-64 63 -100 146q-36 -83 -99 -146 q-140 -140 -337 -140t-337 140q-139 139 -139 336z" />
<glyph unicode="X" horiz-adv-x="1380" d="M150 0v255q0 224 158 382q79 79 173 118q-94 39 -173 118q-158 158 -158 382v248h79v-248q0 -191 135 -326q135 -134 326 -134q190 0 325 134q135 135 135 326v248h80v-248q0 -224 -159 -382q-79 -79 -173 -118q94 -39 173 -118q159 -158 159 -382v-255h-80v255 q0 191 -135 326q-126 126 -301 134h-48q-176 -8 -302 -134q-135 -135 -135 -326v-255h-79z" />
<glyph unicode="Y" horiz-adv-x="1229" d="M100 984v519h79v-519q0 -179 128 -307q124 -124 298 -127h18q174 3 298 127q128 128 128 307v519h80v-519q0 -212 -152 -363q-134 -135 -323 -149v-472h-79v472q-189 14 -324 149q-151 151 -151 363z" />
<glyph unicode="Z" horiz-adv-x="1228" d="M85 100q-8 21 -7.5 43.5t7.5 47.5q16 54 61 103l891 968q33 36 33 77q0 16 -6 29q-6 14 -17 24q-34 31 -109 31h-808v80h808q105 0 162 -53q25 -22 37 -52q12 -28 12 -59q0 -72 -54 -130l-891 -968q-33 -36 -43 -72q-8 -25 -1 -41q6 -18 30 -30q39 -18 113 -18h855v-80 h-855q-92 0 -147 27q-53 26 -71 73z" />
<glyph unicode="[" horiz-adv-x="839" d="M150 -353v1857h539v-79h-460v-1698h460v-80h-539z" />
<glyph unicode="\" horiz-adv-x="794" d="M150 1499l76 21l11 -38l397 -1423l10 -38l-76 -21l-10 38l-397 1423z" />
<glyph unicode="]" horiz-adv-x="839" d="M150 -273h460v1698h-460v79h539v-1857h-539v80z" />
<glyph unicode="^" horiz-adv-x="1064" d="M100 658q51 110 389 845h86q339 -735 389 -845h-87l-345 749l-345 -749h-87z" />
<glyph unicode="_" horiz-adv-x="1054" d="M-32 0h1117v-79h-1117v79z" />
<glyph unicode="`" horiz-adv-x="629" d="M40 1432h98q39 -54 98 -134q89 -121 133 -182h-98l-208 284z" />
<glyph unicode="a" d="M80 489q0 213 151 364q150 150 363 150q128 0 241 -60q62 -33 113 -81v116h80v-978h-80v117q-51 -49 -113 -82q-113 -60 -241 -60q-213 0 -363 151q-151 150 -151 363zM159 489q0 -180 128 -307q127 -128 307 -128q109 0 204 51q90 48 150 132v505q-60 84 -150 132 q-95 50 -204 50q-180 0 -307 -127q-128 -128 -128 -308z" />
<glyph unicode="b" d="M150 0v1503h79v-641q51 48 113 81q113 60 241 60q213 0 364 -150q151 -151 151 -364t-151 -363q-151 -151 -364 -151q-128 0 -241 60q-62 33 -113 82v-117h-79zM229 237q60 -84 150 -132q95 -51 204 -51q181 0 308 128q127 127 127 307t-127 308q-127 127 -308 127 q-109 0 -204 -50q-90 -48 -150 -132v-505z" />
<glyph unicode="c" horiz-adv-x="894" d="M80 490q0 102 37 194q59 144 191 233q131 88 287 88q99 0 192 -38l37 -15l-30 -73l-37 15q-78 31 -162 31q-132 0 -243 -74q-112 -75 -161 -197q-32 -78 -32 -164t32 -163q49 -123 161 -197q111 -75 243 -75q84 0 162 32l37 15l30 -73l-37 -15q-93 -38 -192 -38 q-156 0 -287 88q-132 88 -191 233q-37 92 -37 193z" />
<glyph unicode="d" d="M80 489q0 213 151 364q150 150 363 150q128 0 241 -60q62 -33 113 -81v641h80v-1503h-80v117q-51 -49 -113 -82q-113 -60 -241 -60q-213 0 -363 151q-151 150 -151 363zM159 489q0 -180 128 -307q127 -128 307 -128q109 0 204 51q90 48 150 132v505q-60 84 -150 132 q-95 50 -204 50q-180 0 -307 -127q-128 -128 -128 -308z" />
<glyph unicode="e" horiz-adv-x="1107" d="M80 489q0 213 151 364q150 150 363 150q117 0 222 -50q106 -51 179 -142q11 -14 11 -26q0 -16 -17 -30l-671 -601q120 -99 276 -99q103 0 193 45q92 45 154 127l24 31l62 -48l-23 -31q-74 -97 -182 -150q-107 -54 -228 -54q-213 0 -363 151q-151 150 -151 363zM159 489 q0 -158 102 -280l648 580q-55 58 -127 93q-88 42 -188 42q-180 0 -307 -127q-128 -128 -128 -308z" />
<glyph unicode="f" horiz-adv-x="741" d="M150 0v989q0 213 151 363q150 151 363 151h40v-80h-40q-180 0 -307 -127q-128 -127 -128 -307v-72h475v-79h-475v-838h-79z" />
<glyph unicode="g" d="M80 489q0 213 151 364q150 150 363 150q128 0 241 -60q62 -33 113 -81v116h79v-220q1 -2 1 -4v-529q0 -2 -1 -4v-231h1q0 -213 -151 -363q-151 -151 -364 -151h-39v79h39q181 0 308 128q127 127 127 307v127q-51 -49 -113 -82q-113 -60 -241 -60q-213 0 -363 151 q-151 150 -151 363zM159 489q0 -180 128 -307q127 -128 307 -128q109 0 204 51q90 48 150 132v505q-60 84 -150 132q-95 50 -204 50q-180 0 -307 -127q-128 -128 -128 -308z" />
<glyph unicode="h" horiz-adv-x="1185" d="M150 0v1503h79v-639q48 47 106 79q109 60 234 60q206 0 351 -151q145 -150 145 -363v-489h-79v489q0 181 -123 308q-122 127 -294 127q-104 0 -196 -50q-86 -48 -144 -132v-742h-79z" />
<glyph unicode="i" horiz-adv-x="419" d="M165 1414v89h89v-89h-89zM170 0v978h79v-978h-79z" />
<glyph unicode="j" horiz-adv-x="551" d="M-203 -443h40q180 0 307 127t128 307v987h79v-987q0 -213 -151 -363q-150 -151 -363 -151h-40v80zM267 1414v89h89v-89h-89z" />
<glyph unicode="k" horiz-adv-x="1165" d="M150 0v1503h79v-1047l786 522v-95l-424 -282q159 -27 287 -160q149 -155 149 -349v-92h-79v92q0 163 -127 294q-135 141 -290 141h-14l-14 -1l-26 -1l-248 -164v-361h-79z" />
<glyph unicode="l" horiz-adv-x="479" d="M200 0v1503h79v-1503h-79z" />
<glyph unicode="m" horiz-adv-x="1808" d="M150 0v978h79v-106q40 41 88 70q99 61 213 61q188 0 320 -152l18 -22q57 76 135 122q97 56 205 56q188 0 320 -153q130 -150 130 -361v-489h-79v489q0 182 -111 310q-108 125 -260 125q-87 0 -165 -46q-76 -45 -129 -125q66 -123 66 -268v-489h-80v489q0 182 -110 310 q-108 125 -260 125q-92 0 -172 -49q-77 -48 -129 -132v-743h-79z" />
<glyph unicode="n" horiz-adv-x="1215" d="M150 0v978h79v-114q48 47 106 79q109 60 234 60q206 0 351 -151q145 -150 145 -363v-489h-79v489q0 181 -123 308q-122 127 -294 127q-104 0 -196 -50q-86 -48 -144 -132v-742h-79z" />
<glyph unicode="o" horiz-adv-x="1328" d="M150 489q0 213 151 364q150 150 363 150t364 -150q150 -151 150 -364t-150 -363q-151 -151 -364 -151t-363 151q-151 150 -151 363zM229 489q0 -180 128 -307q127 -128 307 -128t308 128q127 127 127 307t-127 308q-128 127 -308 127t-307 -127q-128 -128 -128 -308z" />
<glyph unicode="p" d="M150 -524v1502h79v-116q51 48 113 81q113 60 241 60q213 0 364 -150q151 -151 151 -364t-151 -363q-151 -151 -364 -151q-128 0 -241 60q-62 33 -113 82v-641h-79zM229 237q60 -84 150 -132q95 -51 204 -51q181 0 308 128q127 127 127 307t-127 308q-127 127 -308 127 q-109 0 -204 -50q-90 -48 -150 -132v-505z" />
<glyph unicode="q" d="M80 489q0 213 151 364q150 150 363 150q128 0 241 -60q62 -33 113 -81v116h80v-1502h-80v641q-51 -49 -113 -82q-113 -60 -241 -60q-213 0 -363 151q-151 150 -151 363zM159 489q0 -180 128 -307q127 -128 307 -128q109 0 204 51q90 48 150 132v505q-60 84 -150 132 q-95 50 -204 50q-180 0 -307 -127q-128 -128 -128 -308z" />
<glyph unicode="r" horiz-adv-x="813" d="M150 0v978h79v-154q48 77 106 115q109 64 234 64q63 0 124 -16t117 -48l-40 -69q-46 27 -97 41q-51 13 -104 13q-104 0 -196 -54q-86 -54 -144 -168v-702h-79z" />
<glyph unicode="s" horiz-adv-x="994" d="M80 714q0 131 110 202q94 62 232 62h417v-79h-417q-104 0 -175 -40q-88 -49 -88 -145q0 -92 108 -136q64 -26 236 -50q205 -29 282 -66q129 -61 129 -198q0 -136 -121 -206q-98 -58 -245 -58h-447v79h447q112 0 188 37q99 48 99 148q0 91 -107 135q-65 26 -236 51 q-206 29 -283 65q-129 61 -129 199z" />
<glyph unicode="t" horiz-adv-x="662" d="M45 901v78h161v524h80v-524h321v-78h-321v-436v-45q0 -119 9 -171q23 -126 135 -159q55 -17 177 -17v-79q-132 0 -199 20q-160 47 -191 221q-10 56 -11 230v436h-161z" />
<glyph unicode="u" horiz-adv-x="1215" d="M150 489v489h79v-489q0 -180 123 -308q122 -127 294 -127q105 0 196 51q86 48 144 131v742h79v-978h-79v114q-48 -46 -106 -78q-109 -61 -234 -61q-206 0 -351 151t-145 363z" />
<glyph unicode="v" horiz-adv-x="1061" d="M10 978h86l2 -4l391 -882q6 -13 17 -20q10 -6 24 -6q15 0 25 6q11 7 17 20l390 882l1 4h88l-16 -36l-391 -882q-15 -34 -46 -54q-30 -20 -68 -20q-37 0 -67 20q-31 20 -46 54l-391 883z" />
<glyph unicode="w" horiz-adv-x="1808" d="M150 489v489h79v-489q0 -182 111 -310q108 -125 260 -125q83 0 158 41q75 42 129 119l7 11q-66 123 -66 267v486h80v-486q0 -182 110 -309q108 -126 260 -126q92 0 172 50q77 48 129 131v740h79v-750q0 -13 -7 -23q-62 -105 -160 -165q-99 -62 -213 -62q-188 0 -320 153 l-18 22q-60 -80 -144 -127q-93 -51 -196 -51q-188 0 -320 152q-130 151 -130 362z" />
<glyph unicode="x" horiz-adv-x="1093" d="M100 0v82q0 185 131 316q57 58 131 91q-74 34 -131 92q-131 130 -131 315v82h79v-82q0 -152 108 -259q107 -108 260 -108q152 0 259 108q108 107 108 259v82h79v-82q0 -185 -131 -315q-57 -58 -131 -92q74 -33 131 -91q131 -131 131 -316v-82h-79v82q0 153 -108 260 q-107 108 -259 108q-153 0 -260 -108q-108 -107 -108 -260v-82h-79z" />
<glyph unicode="y" horiz-adv-x="1193" d="M150 489v489h79v-489q0 -181 120 -308q118 -127 286 -127q101 0 189 51q84 48 140 131v742h79v-1135q0 -12 -6 -22q-67 -107 -174 -168t-228 -61h-40v80h40q101 0 189 50q84 48 140 131v260q-46 -46 -101 -77q-107 -61 -228 -61q-202 0 -344 152q-141 150 -141 362z" />
<glyph unicode="z" horiz-adv-x="1071" d="M116 897v80h777q40 0 40 -40q0 -16 -11 -28l-683 -830h732v-79h-815q-15 0 -25 9q-31 25 -6 55l685 833h-694z" />
<glyph unicode="{" horiz-adv-x="694" d="M150 589q38 18 65 38q25 20 41 41t28 52q12 33 19 77q5 28 7 98q3 269 3 388q0 61 8 103q10 47 32 72q23 25 65 37q35 9 86 9h40v-79h-40q-41 0 -66 -7q-19 -5 -26 -13q-8 -9 -13 -35q-7 -32 -7 -87q0 -112 -3 -390q-2 -76 -8 -109q-8 -51 -23 -91q-16 -42 -38 -72 q-23 -30 -58 -57q-6 -5 -14 -10q16 -11 29 -23q41 -35 67 -84q24 -48 36 -123q12 -72 12 -169q0 -299 1 -337q0 -49 2 -64q3 -25 10 -40q5 -12 12 -18t26 -10q24 -5 61 -5h40v-79h-40q-45 0 -78 7q-38 8 -60 26q-21 18 -34 48q-11 26 -16 62q-2 17 -2 72q-1 59 -1 338 q0 92 -11 157q-10 62 -28 98q-19 35 -49 62t-73 45z" />
<glyph unicode="|" horiz-adv-x="579" d="M250 -400v1903h79v-1903h-79z" />
<glyph unicode="}" horiz-adv-x="694" d="M150 -319h40q37 0 61 5q19 4 26 10t12 18q7 15 10 40q2 15 2 64q1 38 1 337q0 97 12 169q12 75 36 123q26 49 67 84q13 12 29 23q-8 5 -14 10q-35 27 -58 57q-22 30 -38 72q-15 40 -23 91q-6 33 -8 109q-3 278 -3 390q0 55 -7 87q-5 26 -13 35q-7 8 -26 13q-25 7 -66 7 h-40v79h40q51 0 86 -9q42 -12 65 -37q22 -25 32 -72q8 -42 8 -103q0 -119 3 -388q2 -70 7 -98q7 -44 19 -77q12 -31 28 -52t41 -41q27 -20 65 -38l-2 -72q-43 -18 -73 -45t-49 -62q-18 -36 -28 -98q-11 -65 -11 -157q0 -279 -1 -338q-1 -55 -2 -72q-5 -36 -16 -62 q-13 -30 -34 -48q-22 -18 -60 -26q-33 -7 -78 -7h-40v79z" />
<glyph unicode="~" horiz-adv-x="1107" d="M50 978l22 33q85 127 272 127q94 0 248 -65q117 -50 179 -51q102 -1 204 90l29 27l53 -59l-29 -26q-127 -115 -251 -114q-75 0 -216 60q-138 59 -217 59q-145 0 -206 -92l-22 -33z" />
<glyph unicode="&#xa2;" horiz-adv-x="944" d="M100 490q0 102 37 194q59 144 191 233q117 79 255 87v296h76v-297q76 -7 148 -36l37 -15l-30 -73l-37 15q-78 31 -162 31q-132 0 -243 -74q-112 -75 -161 -197q-32 -78 -32 -164t32 -163q49 -123 161 -197q111 -75 243 -75q84 0 162 32l37 15l30 -73l-37 -15 q-72 -29 -148 -36v-301h-76v300q-138 8 -255 87q-132 88 -191 233q-37 92 -37 193z" />
<glyph unicode="&#xa3;" horiz-adv-x="1233" d="M100 700v79h278q-61 142 -61 278q0 135 59 239q61 108 171 158q83 39 185 39q158 0 274 -107q109 -101 127 -262l-79 -9q-15 133 -101 213q-94 86 -221 86q-85 0 -152 -31q-87 -41 -135 -126t-48 -200q0 -131 64 -270q1 -3 4 -8h412v-79h-388q30 -143 -30 -308 q-49 -136 -150 -261q76 20 150 24q114 5 244 -35l4 -1q166 -50 269 -46q98 4 201 62l39 -70q-119 -66 -237 -71q-116 -5 -295 50h-4q-117 36 -217 32q-134 -6 -284 -80q-28 -16 -50 8q-27 30 3 56q182 162 253 358q56 155 23 282h-308z" />
<glyph unicode="&#xa5;" horiz-adv-x="1110" d="M50 1478l67 42l438 -693l438 693l67 -42l-433 -685h299v-80h-331v-191h331v-80h-331v-442h-80v442h-331v80h331v191h-331v80h299l-412 652z" />
<glyph unicode="&#xa8;" horiz-adv-x="716" d="M150 1314v89h89v-89h-89zM477 1315v89h89v-89h-89z" />
<glyph unicode="&#xa9;" horiz-adv-x="1866" d="M150 753q0 -325 229 -554q230 -229 554 -229t554 229q229 229 229 554q0 324 -229 553q-230 230 -554 230t-554 -230q-229 -229 -229 -553zM229 753q0 291 206 497t498 206t498 -206t206 -497q0 -292 -206 -498t-498 -206t-498 206t-206 498zM577 738q0 64 18 125 q41 134 156 218q114 83 253 83q61 0 122 -18l38 -11l-23 -76l-38 12q-48 14 -99 14q-114 0 -206 -68q-94 -68 -127 -177q-15 -49 -15 -102t15 -102q33 -109 127 -177q92 -68 206 -68q51 0 99 15l38 11l23 -75l-38 -12q-61 -18 -122 -18q-139 0 -253 83q-115 84 -156 218 q-18 61 -18 125z" />
<glyph unicode="&#xab;" horiz-adv-x="900" d="M54 520l311 335h113l-311 -335l311 -337h-112zM427 520l311 335h113l-311 -335l311 -337h-112z" />
<glyph unicode="&#xad;" horiz-adv-x="1017" d="M150 560v79h717v-79h-717z" />
<glyph unicode="&#xae;" horiz-adv-x="1866" d="M150 753q0 324 229 553q230 230 554 230t554 -230q229 -229 229 -553q0 -325 -229 -554q-230 -229 -554 -229t-554 229q-229 229 -229 554zM229 753q0 -292 206 -498t498 -206t498 206t206 498q0 291 -206 497t-498 206t-498 -206t-206 -497zM660 316h79v258h193l3 -3 l218 -271l61 50l-188 233q75 20 131 76q85 85 85 206q0 120 -85 205q-86 86 -206 86q-121 0 -206 -86q-75 -75 -84 -181h-1v-573zM739 653v212q0 87 62 149t150 62t150 -62t62 -149q0 -88 -62 -150t-150 -62h-212z" />
<glyph unicode="&#xb4;" horiz-adv-x="629" d="M250 1116q44 61 133 182q59 80 98 134h98l-23 -32l-208 -284h-98z" />
<glyph unicode="&#xb8;" horiz-adv-x="622" d="M127 -401l38 69q47 -25 114 -25q34 0 56 9q21 8 28 22q6 11 6 28q0 42 -48 56q-33 11 -98 13l60 233h72l-48 -177q142 -9 142 -125q0 -37 -16 -66q-22 -40 -69 -58q-36 -14 -85 -14q-87 0 -152 35z" />
<glyph unicode="&#xbb;" horiz-adv-x="900" d="M50 183l311 337l-311 335h112l312 -335l-312 -337h-112zM423 183l311 337l-311 335h112l312 -335l-312 -337h-112z" />
<glyph unicode="&#xd3;" horiz-adv-x="1668" d="M80 751q0 326 219 552q218 225 535 225t535 -225q219 -226 219 -552q0 -325 -219 -551q-218 -225 -535 -225t-535 225q-219 226 -219 551zM159 751q0 -294 197 -496q194 -201 478 -201t478 201q197 202 197 496q0 295 -197 497q-194 201 -478 201t-478 -201 q-197 -202 -197 -497zM724 1641q44 61 133 182q59 80 98 134h98l-23 -32l-208 -284h-98z" />
<glyph unicode="&#xf3;" horiz-adv-x="1328" d="M150 489q0 213 151 364q150 150 363 150t364 -150q150 -151 150 -364t-150 -363q-151 -151 -364 -151t-363 151q-151 150 -151 363zM229 489q0 -180 128 -307q127 -128 307 -128t308 128q127 127 127 307t-127 308q-128 127 -308 127t-307 -127q-128 -128 -128 -308z M554 1116q44 61 133 182q59 80 98 134h98l-23 -32l-208 -284h-98z" />
<glyph unicode="&#x104;" horiz-adv-x="1380" d="M150 0v988q0 224 158 382t382 158q223 0 381 -158q159 -158 159 -382v-988h-80v584h-921v-584h-79zM229 663h921v325q0 191 -135 326t-325 135q-191 0 -326 -135t-135 -326v-325zM1041 -195q-7 95 108 195h79q-100 -97 -112 -171q-4 -32 12 -53q14 -16 40 -19 q34 -2 58 35l63 -32q-41 -78 -126 -73q-47 3 -81 34q-37 33 -41 84z" />
<glyph unicode="&#x105;" d="M80 489q0 213 151 364q150 150 363 150q128 0 241 -60q62 -33 113 -81v116h80v-978h-80v117q-51 -49 -113 -82q-113 -60 -241 -60q-213 0 -363 151q-151 150 -151 363zM159 489q0 -180 128 -307q127 -128 307 -128q109 0 204 51q90 48 150 132v505q-60 84 -150 132 q-95 50 -204 50q-180 0 -307 -127q-128 -128 -128 -308zM839 -195q-7 95 108 195h79q-100 -97 -112 -171q-4 -32 12 -53q14 -16 40 -19q34 -2 58 35l63 -32q-41 -78 -126 -73q-47 3 -81 34q-37 33 -41 84z" />
<glyph unicode="&#x106;" horiz-adv-x="1218" d="M100 751q0 117 34 228q74 244 283 397q207 152 460 152q113 0 223 -34l38 -11l-23 -76l-38 12q-97 30 -200 30q-227 0 -413 -137q-188 -137 -255 -356q-30 -98 -30 -205q0 -106 30 -204q67 -219 255 -357q186 -136 413 -136q103 0 200 30l38 11l23 -75l-38 -12 q-110 -33 -223 -33q-253 0 -460 152q-209 153 -283 397q-34 111 -34 227zM731 1641q44 61 133 182q59 80 98 134h98l-23 -32l-208 -284h-98z" />
<glyph unicode="&#x107;" horiz-adv-x="894" d="M80 490q0 102 37 194q59 144 191 233q131 88 287 88q99 0 192 -38l37 -15l-30 -73l-37 15q-78 31 -162 31q-132 0 -243 -74q-112 -75 -161 -197q-32 -78 -32 -164t32 -163q49 -123 161 -197q111 -75 243 -75q84 0 162 32l37 15l30 -73l-37 -15q-93 -38 -192 -38 q-156 0 -287 88q-132 88 -191 233q-37 92 -37 193zM416 1116q44 61 133 182q59 80 98 134h98l-23 -32l-208 -284h-98z" />
<glyph unicode="&#x118;" horiz-adv-x="972" d="M100 752q0 453 223 635q172 141 528 141h40v-79h-40q-328 0 -478 -123q-185 -151 -193 -535h671v-79h-671q8 -384 193 -535q150 -123 478 -123h40v-79h-42q-93 -93 -105 -164q-4 -32 12 -53q14 -16 40 -19q34 -2 58 35l63 -32q-41 -78 -126 -73q-47 3 -81 34 q-37 33 -41 84q-7 93 102 190q-296 14 -448 139q-223 182 -223 636z" />
<glyph unicode="&#x119;" horiz-adv-x="1107" d="M80 489q0 213 151 364q150 150 363 150q117 0 222 -50q106 -51 179 -142q25 -31 -6 -56l-671 -601q120 -99 276 -99q103 0 193 45q92 45 154 127l24 31l62 -48l-23 -31q-43 -56 -96 -97q-100 -98 -113 -171q-4 -32 12 -53q14 -16 40 -19q34 -2 58 35l63 -32 q-41 -78 -126 -73q-47 3 -81 34q-37 33 -41 84q-4 56 34 114q-76 -26 -160 -26q-213 0 -363 151q-151 150 -151 363zM159 489q0 -158 102 -280l648 580q-55 58 -127 93q-88 42 -188 42q-180 0 -307 -127q-128 -128 -128 -308z" />
<glyph unicode="&#x141;" horiz-adv-x="1018" d="M10 513v98l174 119v773h79v-719l427 293v-98l-427 -293v-302q0 -125 90 -215q89 -89 215 -90h435v-79h-435q-159 0 -271 113q-113 113 -113 271v248z" />
<glyph unicode="&#x142;" horiz-adv-x="593" d="M10 513v98l247 181v711h79v-652l247 181v-98l-247 -181v-753h-79v694z" />
<glyph unicode="&#x143;" horiz-adv-x="1380" d="M150 0v988q0 224 158 382t382 158q223 0 381 -158q159 -158 159 -382v-988h-80v988q0 191 -135 326t-325 135q-191 0 -326 -135t-135 -326v-988h-79zM580 1641q44 61 133 182q59 80 98 134h98l-23 -32l-208 -284h-98z" />
<glyph unicode="&#x144;" horiz-adv-x="1215" d="M150 0v978h79v-114q48 47 106 79q109 60 234 60q206 0 351 -151q145 -150 145 -363v-489h-79v489q0 181 -123 308q-122 127 -294 127q-104 0 -196 -50q-86 -48 -144 -132v-742h-79zM498 1116q44 61 133 182q59 80 98 134h98l-23 -32l-208 -284h-98z" />
<glyph unicode="&#x15a;" horiz-adv-x="1195" d="M93 1107q0 396 444 396h449v-79h-449q-178 0 -266 -69q-99 -77 -99 -248q0 -159 136 -233q81 -45 298 -84q250 -45 343 -100q156 -92 156 -295q0 -395 -481 -395h-497v79h497q190 0 286 63q116 76 116 253q0 159 -136 233q-81 45 -298 84q-249 46 -343 101 q-156 91 -156 294zM489 1641q44 61 133 182q59 80 98 134h98l-23 -32l-208 -284h-98z" />
<glyph unicode="&#x15b;" horiz-adv-x="994" d="M80 714q0 131 110 202q94 62 232 62h417v-79h-417q-104 0 -175 -40q-88 -49 -88 -145q0 -92 108 -136q64 -26 236 -50q205 -29 282 -66q129 -61 129 -198q0 -136 -121 -206q-98 -58 -245 -58h-447v79h447q112 0 188 37q99 48 99 148q0 91 -107 135q-65 26 -236 51 q-206 29 -283 65q-129 61 -129 199zM387 1116q44 61 133 182q59 80 98 134h98l-23 -32l-208 -284h-98z" />
<glyph unicode="&#x179;" horiz-adv-x="1228" d="M85 100q-15 42 0 91q16 54 61 103l891 968q33 36 33 77q0 16 -6 29q-6 14 -17 24q-34 31 -109 31h-808v80h808q105 0 162 -53q25 -22 37 -52q12 -28 12 -59q0 -72 -54 -130l-891 -968q-33 -36 -43 -72q-8 -25 -1 -41q6 -18 30 -30q39 -18 113 -18h855v-80h-855 q-92 0 -147 27q-53 26 -71 73zM508 1641q44 61 133 182q59 80 98 134h98l-23 -32l-208 -284h-98z" />
<glyph unicode="&#x17a;" horiz-adv-x="1071" d="M116 897v80h777q40 0 40 -40q0 -16 -11 -28l-683 -830h732v-79h-815q-15 0 -25 9q-31 25 -6 55l685 833h-694zM432 1116q44 61 133 182q59 80 98 134h98l-23 -32l-208 -284h-98z" />
<glyph unicode="&#x17b;" horiz-adv-x="1228" d="M85 100q-15 42 0 91q16 54 61 103l891 968q33 36 33 77q0 16 -6 29q-6 14 -17 24q-34 31 -109 31h-808v80h808q105 0 162 -53q25 -22 37 -52q12 -28 12 -59q0 -72 -54 -130l-891 -968q-33 -36 -43 -72q-8 -25 -1 -41q6 -18 30 -30q39 -18 113 -18h855v-80h-855 q-92 0 -147 27q-53 26 -71 73zM573 1839v89h89v-89h-89z" />
<glyph unicode="&#x17c;" horiz-adv-x="1071" d="M116 897v80h777q40 0 40 -40q0 -16 -11 -28l-683 -830h732v-79h-815q-15 0 -25 9q-31 25 -6 55l685 833h-694zM498 1314v89h89v-89h-89z" />
<glyph unicode="&#x2c6;" horiz-adv-x="847" d="M150 1128l274 375l273 -375h-87l-186 251l-186 -251h-88z" />
<glyph unicode="&#x2da;" horiz-adv-x="756" d="M150 1206q0 95 67 162q67 66 161 66t161 -66q67 -67 67 -162q0 -94 -67 -161t-161 -67t-161 67t-67 161zM220 1206q0 -65 46 -111q47 -46 112 -46t112 46q46 46 46 111q0 66 -46 112q-47 46 -112 46q-66 0 -112 -46t-46 -112z" />
<glyph unicode="&#x2dc;" horiz-adv-x="894" d="M150 1213l8 38q16 76 61 114q49 42 116 28q55 -11 133 -66q62 -44 96 -51h1q35 -7 56 7q26 18 37 69l8 40l78 -16l-8 -40q-18 -83 -72 -119q-48 -32 -115 -18h-1q-51 10 -125 63q-65 46 -104 54q-29 6 -49 -11q-24 -21 -35 -70l-8 -39z" />
<glyph unicode="&#x2000;" horiz-adv-x="978" />
<glyph unicode="&#x2001;" horiz-adv-x="1957" />
<glyph unicode="&#x2002;" horiz-adv-x="978" />
<glyph unicode="&#x2003;" horiz-adv-x="1957" />
<glyph unicode="&#x2004;" horiz-adv-x="652" />
<glyph unicode="&#x2005;" horiz-adv-x="489" />
<glyph unicode="&#x2006;" horiz-adv-x="326" />
<glyph unicode="&#x2007;" horiz-adv-x="326" />
<glyph unicode="&#x2008;" horiz-adv-x="244" />
<glyph unicode="&#x2009;" horiz-adv-x="391" />
<glyph unicode="&#x200a;" horiz-adv-x="108" />
<glyph unicode="&#x2010;" horiz-adv-x="1017" d="M150 560v79h717v-79h-717z" />
<glyph unicode="&#x2011;" horiz-adv-x="1017" d="M150 560v79h717v-79h-717z" />
<glyph unicode="&#x2012;" horiz-adv-x="1017" d="M150 560v79h717v-79h-717z" />
<glyph unicode="&#x2013;" horiz-adv-x="1361" d="M100 491v79h1161v-79h-1161z" />
<glyph unicode="&#x2014;" horiz-adv-x="1861" d="M100 491v79h1661v-79h-1661z" />
<glyph unicode="&#x2018;" horiz-adv-x="389" d="M150 1295v89l40 119h40l-30 -119h39v-89h-89z" />
<glyph unicode="&#x2019;" horiz-adv-x="389" d="M150 1414v89h89v-89l-40 -119h-40l30 119h-39z" />
<glyph unicode="&#x201a;" horiz-adv-x="389" d="M150 15v89h89v-89l-40 -119h-40l30 119h-39z" />
<glyph unicode="&#x201c;" horiz-adv-x="514" d="M150 1295v89l40 119h40l-30 -119h39v-89h-89zM305 1295v89l40 119h40l-30 -119h39v-89h-89z" />
<glyph unicode="&#x201d;" horiz-adv-x="514" d="M150 1414v89h89v-89l-40 -119h-40l30 119h-39zM305 1414v89h89v-89l-40 -119h-40l30 119h-39z" />
<glyph unicode="&#x201e;" horiz-adv-x="514" d="M150 15v89h89v-89l-40 -119h-40l30 119h-39zM305 15v89h89v-89l-40 -119h-40l30 119h-39z" />
<glyph unicode="&#x2026;" horiz-adv-x="2048" d="M150 0v89h89v-89h-89zM833 0v89h89v-89h-89zM1516 0v89h89v-89h-89z" />
<glyph unicode="&#x202f;" horiz-adv-x="391" />
<glyph unicode="&#x2039;" horiz-adv-x="528" d="M54 520l311 335h113l-311 -335l311 -337h-112z" />
<glyph unicode="&#x203a;" horiz-adv-x="528" d="M50 183l311 337l-311 335h112l312 -335l-312 -337h-112z" />
<glyph unicode="&#x205f;" horiz-adv-x="489" />
<glyph unicode="&#x20ac;" horiz-adv-x="1547" d="M150 611v79h224q-4 46 -4 92q0 57 6 112h-226v80h238q17 95 52 179q76 185 216 285q136 97 313 97q130 0 241 -32q84 -25 153 -66l34 -20l-40 -68l-34 20q-61 36 -135 58q-100 29 -219 29q-152 0 -267 -82q-122 -87 -189 -251q-29 -70 -45 -149h808v-80h-820 q-7 -55 -7 -112q0 -46 5 -92h765v-79h-755q31 -170 115 -288q118 -164 321 -202q209 -38 401 71l34 20l39 -69l-34 -20q-216 -123 -454 -80q-235 44 -371 234q-98 137 -131 334h-234z" />
<glyph unicode="&#x2122;" horiz-adv-x="1457" d="M10 1470v62h471v-62h-201v-562h-70v562h-200zM481 908v446q0 78 62 134q62 55 150 55t150 -55q15 -14 27 -30q12 16 27 30q62 55 150 55t150 -55q62 -56 62 -134v-446h-70v446q0 52 -42 89q-41 37 -100 37t-100 -37q-39 -35 -42 -83v-407h-70v401q0 52 -42 89t-100 37 q-59 0 -100 -37q-42 -37 -42 -89v-446h-70z" />
<glyph unicode="&#x25fc;" horiz-adv-x="980" d="M0 0v980h980v-980h-980z" />
</font>
</defs>
</svg>
